# xmcd
#
# Track frame offsets: 
#        150
#        18239
#        39403
#        54778
#        71330
#        86912
#        106322
#        122159
#        138105
#        155102
#        172053
#        187832
#        206366
#        223798
#        241331
#
# Disc length: 3455 seconds
#
# Revision: 0
# Processed by: cddbd v1.5.2PL0 Copyright (c) Steve Scherf et al.
# Submitted via: ExactAudioCopy v1.0b1
#
DISCID=c90d7d0f
DTITLE=Années 80 Compil  - Années 80 Compil CD 8
DYEAR=2010
DGENRE=Country
TTITLE0=Images - Maîtresse
TTITLE1=Stéphanie - Ouragan
TTITLE2=Léopold Nord et vous - C'est l'amour
TTITLE3=Kim Carnes - Bette Davis eyes
TTITLE4=Fr. David - Words
TTITLE5=Michael Sembello - Maniac
TTITLE6=Vivian Reed - Faith and fire
TTITLE7=Yianna Katsoulos - La autres sont jaloux
TTITLE8=William Pitt - City lights
TTITLE9=Topo and Roby - Under the ice
TTITLE10=Five Letters - Ma keen dawn
TTITLE11=Fun Fun - Color my love
TTITLE12=Maike anthony - Why can't we live together
TTITLE13=Nicole Croisille - J'aurai voulu être un artiste
TTITLE14=Adrian Gurvtz - Classic
EXTD=
EXTT0=
EXTT1=
EXTT2=
EXTT3=
EXTT4=
EXTT5=
EXTT6=
EXTT7=
EXTT8=
EXTT9=
EXTT10=
EXTT11=
EXTT12=
EXTT13=
EXTT14=
PLAYORDER=
